<svg xmlns="http://www.w3.org/2000/svg" viewBox="0 0 1080 1920"><rect width="1080" height="1920" fill="#EAF1FA"/><rect width="1080" height="980" fill="#CFE0F2"/><path d="M0 0 L200 0 L0 200 Z" fill="#2E6FB7" opacity="0.25"/><g transform="translate(540.0,470)"><rect x="-150" y="-220" width="300" height="440" rx="40" fill="#FFFFFF" stroke="#1F3A6E" stroke-width="8"/><rect x="-120" y="-180" width="240" height="300" rx="12" fill="#EAF1FA"/><g transform="translate(0,40) scale(1.0)"><circle cx="0" cy="-66" r="46" fill="#5C9A3A"/><circle cx="-40" cy="-50" r="32" fill="#5C9A3A"/><circle cx="40" cy="-50" r="32" fill="#5C9A3A"/><circle cx="-24" cy="-86" r="30" fill="#5C9A3A"/><circle cx="26" cy="-86" r="30" fill="#5C9A3A"/><circle cx="2" cy="-98" r="28" fill="#5C9A3A"/><path d="M 0 40 C 0 64 -22 74 -40 96 M 0 40 C 0 66 18 78 36 98
               M 0 40 C -2 70 -4 86 -6 106 M 0 40 C 2 70 6 84 14 104"
               fill="none" stroke="#E0A21A" stroke-width="6.5" stroke-linecap="round"/><path d="M 0 44 C 1 20 0 0 0 -28" fill="none" stroke="#1F3A6E" stroke-width="13" stroke-linecap="round"/><path d="M 0 -8 C 16 -20 26 -28 38 -42 M 0 0 C -16 -12 -28 -18 -42 -28
           M 0 -22 C 6 -40 6 -52 4 -66" fill="none" stroke="#1F3A6E" stroke-width="8" stroke-linecap="round"/></g><circle cx="90" cy="-120" r="34" fill="#E0A21A"/><path d="M90 -150 a18 18 0 1 1 -0.1 0 Z" fill="#FFFFFF"/></g><path d="M 143.10 110.00 L 157.06 117.67 L 154.89 128.58 L 139.06 130.32 L 149.02 142.75 L 142.84 152.00 L 127.55 147.55 L 132.00 162.84 L 122.75 169.02 L 110.32 159.06 L 108.58 174.89 L 97.67 177.06 L 90.00 163.10 L 82.33 177.06 L 71.42 174.89 L 69.68 159.06 L 57.25 169.02 L 48.00 162.84 L 52.45 147.55 L 37.16 152.00 L 30.98 142.75 L 40.94 130.32 L 25.11 128.58 L 22.94 117.67 L 36.90 110.00 L 22.94 102.33 L 25.11 91.42 L 40.94 89.68 L 30.98 77.25 L 37.16 68.00 L 52.45 72.45 L 48.00 57.16 L 57.25 50.98 L 69.68 60.94 L 71.42 45.11 L 82.33 42.94 L 90.00 56.90 L 97.67 42.94 L 108.58 45.11 L 110.32 60.94 L 122.75 50.98 L 132.00 57.16 L 127.55 72.45 L 142.84 68.00 L 149.02 77.25 L 139.06 89.68 L 154.89 91.42 L 157.06 102.33 Z" fill="#E0A21A"/><circle cx="90" cy="110" r="53.1" fill="#1F3A6E"/><g transform="translate(90,111.8) scale(0.41400000000000003)"><circle cx="0" cy="-66" r="46" fill="#5C9A3A"/><circle cx="-40" cy="-50" r="32" fill="#5C9A3A"/><circle cx="40" cy="-50" r="32" fill="#5C9A3A"/><circle cx="-24" cy="-86" r="30" fill="#5C9A3A"/><circle cx="26" cy="-86" r="30" fill="#5C9A3A"/><circle cx="2" cy="-98" r="28" fill="#5C9A3A"/><path d="M 0 40 C 0 64 -22 74 -40 96 M 0 40 C 0 66 18 78 36 98
               M 0 40 C -2 70 -4 86 -6 106 M 0 40 C 2 70 6 84 14 104"
               fill="none" stroke="#E0A21A" stroke-width="6.5" stroke-linecap="round"/><path d="M 0 44 C 1 20 0 0 0 -28" fill="none" stroke="#FFFFFF" stroke-width="13" stroke-linecap="round"/><path d="M 0 -8 C 16 -20 26 -28 38 -42 M 0 0 C -16 -12 -28 -18 -42 -28
           M 0 -22 C 6 -40 6 -52 4 -66" fill="none" stroke="#FFFFFF" stroke-width="8" stroke-linecap="round"/></g><text x="170" y="120" font-family="Georgia, serif" font-size="46" font-weight="700" fill="#1F3A6E">Mezquite</text><text x="1010" y="120" text-anchor="end" font-family="Arial, Helvetica, sans-serif" font-size="38" fill="#6B7A90">Saltar</text><text x="80" y="1180" font-family="Arial, Helvetica, sans-serif" font-size="40" letter-spacing="4" font-weight="700" fill="#2E6FB7">PASO 1 · MESES 1-6</text><text x="80" y="1290" font-family="Georgia, serif" font-size="84" font-weight="700" fill="#1F3A6E">Concientizar</text><text x="80" y="1390" font-family="Arial, Helvetica, sans-serif" font-size="44" fill="#3A4759">Registra mezquites de tu</text><text x="80" y="1454" font-family="Arial, Helvetica, sans-serif" font-size="44" fill="#3A4759">comunidad con la app y</text><text x="80" y="1518" font-family="Arial, Helvetica, sans-serif" font-size="44" fill="#3A4759">activa censos base en</text><text x="80" y="1582" font-family="Arial, Helvetica, sans-serif" font-size="44" fill="#3A4759">preparatorias piloto.</text><rect x="458.0" y="1640" width="44" height="22" rx="11" fill="#2E6FB7"/><rect x="529.0" y="1640" width="22" height="22" rx="11" fill="#C3CEDD"/><rect x="589.0" y="1640" width="22" height="22" rx="11" fill="#C3CEDD"/><rect x="80" y="1740" width="920" height="120" rx="60" fill="#1F3A6E"/><text x="540.0" y="1818" text-anchor="middle" font-family="Arial, Helvetica, sans-serif" font-size="46" font-weight="700" fill="#FFFFFF">Siguiente</text></svg>