<svg xmlns="http://www.w3.org/2000/svg" viewBox="0 0 1080 1920"><defs><linearGradient id="bg" x1="0" y1="0" x2="0" y2="1"><stop offset="0" stop-color="#2E6FB7"/><stop offset="1" stop-color="#1F3A6E"/></linearGradient></defs><rect width="1080" height="1920" fill="url(#bg)"/><path d="M0 0 L240 0 L0 240 Z" fill="#E0A21A" opacity="0.18"/><path d="M1080 1920 L840 1920 L1080 1680 Z" fill="#E0A21A" opacity="0.18"/><path d="M 764.20 760.00 L 823.15 792.39 L 813.99 838.44 L 747.13 845.80 L 789.21 898.28 L 763.12 937.32 L 698.53 918.53 L 717.32 983.12 L 678.28 1009.21 L 625.80 967.13 L 618.44 1033.99 L 572.39 1043.15 L 540.00 984.20 L 507.61 1043.15 L 461.56 1033.99 L 454.20 967.13 L 401.72 1009.21 L 362.68 983.12 L 381.47 918.53 L 316.88 937.32 L 290.79 898.28 L 332.87 845.80 L 266.01 838.44 L 256.85 792.39 L 315.80 760.00 L 256.85 727.61 L 266.01 681.56 L 332.87 674.20 L 290.79 621.72 L 316.88 582.68 L 381.47 601.47 L 362.68 536.88 L 401.72 510.79 L 454.20 552.87 L 461.56 486.01 L 507.61 476.85 L 540.00 535.80 L 572.39 476.85 L 618.44 486.01 L 625.80 552.87 L 678.28 510.79 L 717.32 536.88 L 698.53 601.47 L 763.12 582.68 L 789.21 621.72 L 747.13 674.20 L 813.99 681.56 L 823.15 727.61 Z" fill="#E0A21A"/><circle cx="540.0" cy="760" r="224.2" fill="#1F3A6E"/><g transform="translate(540.0,767.6) scale(1.748)"><circle cx="0" cy="-66" r="46" fill="#5C9A3A"/><circle cx="-40" cy="-50" r="32" fill="#5C9A3A"/><circle cx="40" cy="-50" r="32" fill="#5C9A3A"/><circle cx="-24" cy="-86" r="30" fill="#5C9A3A"/><circle cx="26" cy="-86" r="30" fill="#5C9A3A"/><circle cx="2" cy="-98" r="28" fill="#5C9A3A"/><path d="M 0 40 C 0 64 -22 74 -40 96 M 0 40 C 0 66 18 78 36 98
               M 0 40 C -2 70 -4 86 -6 106 M 0 40 C 2 70 6 84 14 104"
               fill="none" stroke="#E0A21A" stroke-width="6.5" stroke-linecap="round"/><path d="M 0 44 C 1 20 0 0 0 -28" fill="none" stroke="#FFFFFF" stroke-width="13" stroke-linecap="round"/><path d="M 0 -8 C 16 -20 26 -28 38 -42 M 0 0 C -16 -12 -28 -18 -42 -28
           M 0 -22 C 6 -40 6 -52 4 -66" fill="none" stroke="#FFFFFF" stroke-width="8" stroke-linecap="round"/></g><text x="540.0" y="1150" text-anchor="middle" font-family="Georgia, serif" font-size="120" font-weight="700" fill="#FFFFFF">Mezquite</text><text x="540.0" y="1230" text-anchor="middle" font-family="Arial, Helvetica, sans-serif" font-size="42" letter-spacing="8" fill="#E0A21A">PROYECTO DE RESCATE</text><rect x="450.0" y="1290" width="180" height="6" rx="3" fill="#E0A21A"/><text x="540.0" y="1820" text-anchor="middle" font-family="Arial, Helvetica, sans-serif" font-size="34" fill="#CBD8EC">Club Rotario Bosques Aguascalientes</text><circle cx="500.0" cy="1700" r="11" fill="#E0A21A" opacity="0.4"/><circle cx="540.0" cy="1700" r="11" fill="#E0A21A" opacity="0.6000000000000001"/><circle cx="580.0" cy="1700" r="11" fill="#E0A21A" opacity="0.8"/></svg>